<?xml version="1.0" standalone="no"?>
<!DOCTYPE svg PUBLIC "-//W3C//DTD SVG 20010904//EN"
 "http://www.w3.org/TR/2001/REC-SVG-20010904/DTD/svg10.dtd">
<svg version="1.0" xmlns="http://www.w3.org/2000/svg"
 width="494.000000pt" height="494.000000pt" viewBox="0 0 494.000000 494.000000"
 preserveAspectRatio="xMidYMid meet">
<metadata>
Created by potrace 1.14, written by Peter Selinger 2001-2017
</metadata>
<g transform="translate(0.000000,494.000000) scale(0.100000,-0.100000)"
fill="#000000" stroke="none">
<path d="M1630 4572 c236 -118 399 -210 375 -213 -5 0 -66 -2 -135 -4 -150 -3
-389 -19 -465 -31 -54 -8 -82 -12 -135 -19 -25 -3 -79 -13 -120 -22 -41 -8
-84 -17 -96 -19 -44 -8 -221 -64 -264 -83 -38 -16 -41 -20 -20 -21 14 -1 32
-3 40 -4 8 -2 42 -6 75 -11 93 -11 116 -14 175 -25 30 -5 71 -12 90 -15 50 -8
191 -42 219 -53 25 -9 25 -9 -119 -37 -38 -7 -114 -30 -210 -62 -189 -64 -381
-166 -520 -278 -70 -56 -163 -146 -157 -152 2 -2 39 3 83 11 160 30 407 36
431 12 2 -1 -36 -38 -84 -82 -378 -340 -668 -712 -737 -943 -26 -89 -42 -95
150 60 330 265 786 583 1079 751 103 59 391 192 560 257 44 18 89 36 100 41
20 9 125 47 225 82 191 66 573 173 685 192 17 2 55 9 85 16 211 42 427 66 624
69 l70 1 -43 43 c-51 49 -80 108 -77 157 2 41 9 42 86 19 137 -42 247 -104
297 -166 13 -15 31 -38 40 -50 14 -16 33 -23 80 -27 35 -4 68 -9 75 -11 7 -2
24 -6 38 -9 14 -2 48 -10 75 -16 28 -6 61 -14 74 -16 13 -3 32 -9 43 -15 25
-14 23 -5 -14 49 -116 172 -379 339 -701 447 -170 56 -489 139 -622 160 -16 3
-41 7 -55 10 -14 3 -38 7 -55 10 -16 3 -41 7 -55 10 -25 5 -90 15 -125 20 -35
5 -109 16 -135 20 -14 2 -50 7 -80 10 -30 3 -62 7 -70 9 -8 3 -51 7 -95 11
-44 3 -96 8 -115 10 -19 2 -75 6 -125 10 -49 3 -115 8 -145 11 -30 2 -168 6
-305 9 l-250 4 255 -127z"/>
<path d="M3867 3854 c-1 -1 -47 -4 -102 -8 -55 -4 -116 -9 -135 -12 -248 -36
-502 -96 -715 -170 -71 -25 -134 -46 -140 -48 -5 -2 -19 -7 -30 -11 -11 -4
-52 -21 -92 -36 -39 -16 -91 -37 -115 -48 -24 -10 -86 -38 -138 -62 -211 -94
-426 -211 -725 -392 -161 -98 -449 -299 -535 -373 -14 -12 -73 -62 -132 -113
-116 -99 -376 -355 -474 -466 -34 -39 -85 -97 -114 -130 -128 -147 -402 -536
-388 -550 2 -2 28 20 58 48 160 150 595 505 606 495 1 -2 -8 -41 -21 -88 -290
-1076 -376 -1399 -390 -1460 -2 -8 -15 -55 -29 -105 -14 -49 -23 -91 -21 -93
3 -3 2830 -6 3167 -3 43 1 77 4 77 9 -1 4 0 9 1 12 1 3 3 12 5 20 5 27 225
849 231 865 5 13 -107 15 -995 15 -557 0 -1001 4 -1001 9 0 4 14 60 30 122 17
63 33 122 35 131 2 9 15 61 30 115 15 54 28 105 30 113 15 68 29 116 36 124 4
5 427 9 974 9 l966 0 9 23 c7 18 137 493 155 564 14 58 65 240 74 262 7 19 7
27 -2 31 -7 2 -446 4 -977 4 l-965 0 -245 -82 c-358 -121 -430 -147 -535 -190
-91 -38 -84 -29 31 42 150 93 538 292 724 373 41 18 89 38 105 45 146 64 562
206 675 230 8 2 71 17 140 34 69 17 136 32 150 35 29 5 96 17 125 22 11 3 54
9 95 15 41 5 86 12 99 14 110 19 443 26 576 12 342 -34 595 -182 656 -385 6
-23 15 -42 18 -41 18 2 132 151 169 221 l42 82 0 152 0 153 -34 64 c-114 219
-383 356 -771 393 -57 5 -263 12 -268 8z"/>
</g>
</svg>
